<svg id="SvgjsSvg1001" width="288" height="288"
    xmlns="http://www.w3.org/2000/svg" version="1.1"
    xmlnsXlink="http://www.w3.org/1999/xlink"
    xmlnsSvgjs="http://svgjs.com/svgjs">
    <defs id="SvgjsDefs1002"></defs>
    <g id="SvgjsG1008">
        <svg xmlns="http://www.w3.org/2000/svg" width="150" height="150" version="1.0" viewBox="0 0 200 200">
            <g transform="matrix(.1 0 0 -.1 0 200)" fill="#469d62" className="color000 svgShape">
                <path d="M328 1215c-28-15-44-47-33-65 10-16 35-12 35 5 0 18 38 35 60 27 23-9 30-23 30-70 0-43 0-43 33-40 28 3 32 7 35 35 9 87-84 149-160 108zM625 1171c-9-16 3-31 26-31 14 0 19 6 17 17-4 20-33 29-43 14zM953 1173c-7-3-13-16-13-29 0-20-5-24-28-24-38 0-52-17-52-62 0-44 17-57 71-53 55 3 59 9 59 90 0 72-8 88-37 78zm-15-114c-1-13-7-23-13-22-13 3-18 30-11 50 10 24 29 1 24-28z" fill="#0f8434" className="color000 svgShape"></path>
                <path d="M365 1148c-2-7-6-33-7-58-3-44-4-45-33-42l-30 3 33-33c27-28 32-42 32-80 0-51-12-67-36-47-27 23-29-3-1-26 33-29 36-62 5-67-12-2-23-9-26-15-3-10 16-13 73-13 56 0 76 3 73 12-3 7-15 15-29 18-21 5-24 12-27 60-3 51-1 56 30 81 18 15 30 31 26 35-4 4-14 1-22-5-27-23-36-2-36 89 0 80-12 123-25 88zM1497 1130c-9-17-11-32-6-36 5-3 9-17 9-32 0-49 33-71 69-46 28 20 28 48 1 39-16-5-20-2-20 14 0 12 7 21 15 21 8 0 15 7 15 15 0 8-7 15-15 15-8 0-15 9-15 20 0 32-36 25-53-10zM627 1113c-11-11-8-88 4-100 24-24 39-2 39 53 0 46-3 54-18 54-10 0-22-3-25-7zM706 1113c-12-13-6-101 7-106 22-8 35 6 39 43 4 46 22 45 26-2 3-37 19-52 41-39 8 5 11 26 9 57l-3 49-56 2c-31 1-60-1-63-4zM1032 1108c-24-31-23-57 3-84 21-21 32-25 57-20 17 3 37 11 45 17 18 15 17 64-3 83-19 19-87 21-102 4zm66-49c-5-35-28-36-28-1 0 16 3 32 7 36 11 11 25-10 21-35zM1180 1064c0-52 1-55 23-52 15 2 23 11 25 28 6 49 16 56 21 15 5-32 11-41 28-43 27-4 41 36 27 77-9 24-15 26-67 28l-57 2 0-55zM1341 1107c-17-17-13-72 7-89 11-10 31-15 57-12 22 1 43 3 48 3 4 1 7 25 7 55l0 53-54 1c-29 0-59-5-65-11zm69-48c0-29-13-39-25-18-10 15 4 61 15 54 6-3 10-19 10-36zM1627 1102c-49-54 26-128 88-88 35 23 31 36-10 29-23-4-35-2-35 6 0 6 11 11 24 11 13 0 29 7 36 15 32 39-69 65-103 27zm63-17c0-8-7-15-15-15-16 0-20 12-8 23 11 12 23 8 23-8z" fill="#765c48" className="color000 svgShape"></path>
                <path d="M232 1103c-7-3-18-16-23-30-15-40 12-73 58-73 33 0 35 1 19 13-26 19-18 61 12 65 13 2 21 9 19 15-4 13-63 20-85 10zM453 1033c-19-7-16-21 6-28 25-8 32-39 14-64-13-20-12-21 19-21 43 0 58 15 58 56 0 48-49 77-97 57zM232 950c-12-5-27-22-33-37-17-45 33-96 77-79 14 5 14 8 0 22-9 8-16 19-16 24 0 22 14 40 31 40 27 0 24 26-3 34-28 7-27 7-56-4z" fill="#0f8434" className="color000 svgShape"></path>
            </g>
        </svg>
    </g>
</svg>